<?xml version="1.0" standalone="no"?>
<!DOCTYPE svg PUBLIC "-//W3C//DTD SVG 20010904//EN"
 "http://www.w3.org/TR/2001/REC-SVG-20010904/DTD/svg10.dtd">
<svg version="1.0" xmlns="http://www.w3.org/2000/svg"
 width="528.000000pt" height="84.000000pt" viewBox="0 0 528.000000 84.000000"
 preserveAspectRatio="xMidYMid meet">

<g transform="translate(0.000000,84.000000) scale(0.100000,-0.100000)"
fill="#000000" stroke="none">
<path d="M4303 574 c-3 -9 -1 -25 5 -35 8 -12 11 -64 10 -146 -2 -114 -3 -118
-5 -35 -4 90 -4 92 -28 92 -18 0 -25 -5 -25 -19 0 -11 5 -23 10 -26 6 -3 10
-35 10 -69 0 -56 -2 -64 -21 -69 -12 -3 -18 -10 -14 -16 7 -12 325 -14 325 -2
0 4 -11 18 -25 31 -23 22 -25 22 -26 4 -1 -10 -5 -1 -8 21 -5 31 -11 41 -28
43 -19 3 -22 -2 -26 -40 l-4 -43 -1 43 c-2 37 -5 42 -26 42 -22 0 -25 -5 -28
-42 l-3 -43 -6 38 c-3 20 -2 42 1 47 4 6 30 12 58 13 42 2 52 5 52 20 0 9 -7
17 -15 17 -9 0 -15 9 -15 25 0 18 5 25 20 25 11 0 20 -5 20 -11 0 -6 7 -3 16
5 8 9 24 21 35 26 10 6 19 21 19 34 0 13 7 27 16 30 9 3 14 15 12 28 -3 23 -6
23 -151 26 -130 2 -148 1 -154 -14z m137 -74 c0 -15 -7 -20 -25 -20 -18 0 -25
5 -25 20 0 15 7 20 25 20 18 0 25 -5 25 -20z m70 0 c0 -13 -7 -20 -19 -20 -10
0 -21 9 -24 20 -4 16 0 20 19 20 17 0 24 -6 24 -20z m-70 -75 c0 -20 -5 -25
-25 -25 -20 0 -25 5 -25 25 0 20 5 25 25 25 20 0 25 -5 25 -25z"/>
<path d="M635 495 c-23 -22 -25 -32 -25 -110 0 -79 2 -88 26 -112 23 -23 31
-25 96 -21 82 4 98 18 98 85 l0 43 -40 0 c-22 0 -40 -4 -40 -10 0 -5 14 -10
30 -10 27 0 30 -3 30 -29 0 -16 -7 -37 -16 -45 -21 -21 -112 -21 -142 0 -20
14 -22 24 -22 99 0 75 2 85 22 99 47 33 145 17 161 -26 7 -22 19 -1 12 22 -9
28 -43 40 -111 40 -45 0 -59 -4 -79 -25z"/>
<path d="M1030 385 l0 -135 85 0 c50 0 85 4 85 10 0 6 -33 10 -80 10 l-80 0 0
55 0 55 55 0 c30 0 55 5 55 10 0 6 -25 10 -55 10 l-55 0 0 50 0 50 80 0 c47 0
80 4 80 10 0 6 -35 10 -85 10 l-85 0 0 -135z"/>
<path d="M1420 513 c-32 -11 -40 -37 -40 -128 0 -119 6 -128 96 -133 59 -3 73
-1 97 18 26 21 27 25 27 115 0 89 -1 95 -26 114 -20 16 -40 21 -83 20 -31 0
-63 -3 -71 -6z m144 -29 c12 -11 16 -36 16 -99 0 -104 -8 -115 -89 -115 -87 0
-96 11 -96 115 0 74 3 89 19 101 28 20 130 19 150 -2z"/>
<path d="M2061 401 c-66 -154 -65 -151 -54 -151 5 0 17 16 26 35 l17 35 70 0
70 0 17 -35 c15 -31 33 -47 33 -29 0 15 -113 264 -120 264 -4 0 -31 -54 -59
-119z m88 21 c13 -31 25 -63 28 -69 4 -10 -11 -13 -57 -13 -34 0 -60 3 -58 8
2 4 14 35 28 70 14 34 27 62 30 62 3 0 16 -26 29 -58z"/>
<path d="M2350 510 c0 -5 23 -10 50 -10 l50 0 0 -125 c0 -77 4 -125 10 -125 6
0 10 48 10 125 l0 125 50 0 c28 0 50 5 50 10 0 6 -43 10 -110 10 -67 0 -110
-4 -110 -10z"/>
<path d="M2715 511 c-3 -6 17 -11 47 -13 l53 -3 3 -123 c3 -160 22 -153 22 9
l0 119 51 0 c31 0 48 4 44 10 -8 13 -212 13 -220 1z"/>
<path d="M3110 385 l0 -135 90 0 c53 0 90 4 90 10 0 6 -33 10 -80 10 l-80 0 0
55 0 55 55 0 c30 0 55 5 55 10 0 6 -25 10 -55 10 l-55 0 0 50 0 50 80 0 c47 0
80 4 80 10 0 6 -37 10 -90 10 l-90 0 0 -135z"/>
<path d="M3470 385 c0 -166 18 -184 22 -22 l3 112 89 -110 c48 -60 92 -111 97
-113 5 -2 9 56 9 132 0 166 -18 186 -22 24 l-3 -112 -89 112 c-49 62 -93 112
-98 112 -4 0 -8 -61 -8 -135z"/>
<path d="M3900 385 l0 -135 70 0 c116 0 140 23 140 135 0 112 -24 135 -140
135 l-70 0 0 -135z m170 95 c16 -16 20 -33 20 -95 0 -100 -14 -115 -105 -115
l-65 0 0 115 0 115 65 0 c52 0 69 -4 85 -20z"/>
<path d="M4580 463 c-38 -14 -60 -47 -60 -89 0 -36 6 -50 39 -84 34 -36 42
-40 60 -31 34 19 71 82 71 122 0 54 -62 100 -110 82z m62 -68 c10 -22 9 -29
-9 -46 -26 -26 -60 -18 -69 17 -13 52 56 77 78 29z"/>
</g>
</svg>
